<?xml version="1.0" encoding="utf-8"?>
<!-- Generator: Adobe Illustrator 23.0.5, SVG Export Plug-In . SVG Version: 6.00 Build 0)  -->
<svg version="1.1" xmlns="http://www.w3.org/2000/svg" xmlns:xlink="http://www.w3.org/1999/xlink" x="0px" y="0px"
	 viewBox="0 0 1000 1000" style="enable-background:new 0 0 1000 1000;" xml:space="preserve">
<style type="text/css">
	.st0{fill:none;stroke:#000000;stroke-width:8;stroke-miterlimit:10;}
	.st1{fill:#FFFFFF;}
	.st2{fill:#FFFFFF;stroke:#000000;stroke-width:8;stroke-miterlimit:10;}
	.st3{font-family:'TwCenMT-Italic';}
	.st4{font-size:100.3531px;}
</style>
<g id="Capa_1">
</g>
<g id="Capa_3">
	<path d="M324,610h331c-0.02-14.89-2.07-49.85-24.52-85.81c-25.99-41.65-63.25-58.9-76.62-64.36c-7.25,5.44-30.52,21.45-64.36,21.45
		c-9.07,0-37.29-1.15-64.36-21.45c-13.75,5.58-45.54,20.65-70.49,55.17C325.95,554.69,324.02,595.6,324,610z"/>
	<ellipse cx="489.35" cy="369.41" rx="94.86" ry="90.41"/>
	
		<ellipse transform="matrix(0.9938 -0.1112 0.1112 0.9938 -47.1779 57.4412)" class="st0" cx="491.46" cy="451.75" rx="225.21" ry="152.8"/>
	<path class="st1" d="M425,417h129c-2.19,3.11-24.89,34.21-64.91,34C449.58,450.79,427.27,420.23,425,417z"/>
	<rect x="476" y="489" class="st1" width="23" height="17"/>
	<polygon class="st1" points="477,513 468,572 490,595 507,572 499,513 	"/>
	<g>
		<path class="st2" d="M657.89,301.16h16.72l-4.53,28.57h25.84l-2.65,16.72h-25.84l-4.67,29.49h-16.72l4.67-29.49h-25.69l2.65-16.72
			h25.69L657.89,301.16z"/>
	</g>
</g>
<g id="Capa_4">
	<text transform="matrix(1 0 0 1 274.8369 708.2012)" class="st3 st4">My Contacts</text>
</g>
</svg>
